<svg width="36" height="36" viewBox="0 0 36 36" fill="none" xmlns="http://www.w3.org/2000/svg">
<path d="M12.2577 35.298C11.2319 35.298 10.2476 34.934 9.48546 34.273C8.55596 33.4672 8.05953 32.3148 8.12371 31.1126L8.23096 29.1054C8.25412 28.6704 8.09892 28.2512 7.79424 27.9274C7.48954 27.6036 7.07192 27.4126 6.61774 27.3906C6.5568 27.388 6.50237 27.388 6.44549 27.3906L4.35696 27.4938C4.28504 27.4972 4.21558 27.4988 4.14612 27.4988C1.93937 27.4988 0.124243 25.8376 0.0133315 23.7164C-0.0488302 22.5164 0.447206 21.3668 1.37508 20.5622L2.92696 19.2148C3.26454 18.922 3.46321 18.52 3.48637 18.0832C3.50992 17.6466 3.35474 17.2274 3.05004 16.9028C3.01146 16.8622 2.97124 16.8226 2.92817 16.786L1.37467 15.4368C0.553654 14.7184 0.0742796 13.739 0.0222796 12.6774C-0.0301321 11.6153 0.351331 10.5969 1.09558 9.81059C1.92028 8.93871 3.12116 8.46253 4.3468 8.51293L6.44183 8.61683C7.37662 8.66175 8.18303 7.96567 8.23096 7.06487C8.23421 7.00863 8.23421 6.95121 8.23096 6.89417L8.1233 4.88323C8.06805 3.81957 8.44628 2.80043 9.18808 2.01215C9.92991 1.22347 10.9472 0.760187 12.0517 0.707447C13.2969 0.646127 14.5022 1.13245 15.3318 2.01645L16.7317 3.50317C17.0551 3.84769 17.5162 4.04457 17.9976 4.04457C18.4193 4.04457 18.824 3.89457 19.1375 3.62231C19.1815 3.58441 19.222 3.54535 19.2606 3.50433L20.6618 2.01097C21.4478 1.17895 22.5654 0.703167 23.7306 0.703167C24.7613 0.703167 25.7498 1.07035 26.5131 1.73675C27.4333 2.53987 27.926 3.68519 27.8646 4.87895L27.757 6.88909C27.7099 7.79067 28.4358 8.56253 29.3746 8.60785C29.4298 8.61019 29.4901 8.61059 29.5477 8.60785L31.6327 8.50473C31.7053 8.50121 31.7792 8.49925 31.8528 8.49925C34.0526 8.49925 35.8677 10.1551 35.9847 12.2688C36.0514 13.4746 35.5541 14.6298 34.621 15.4384L33.0683 16.7856C32.7312 17.0786 32.5325 17.4802 32.5093 17.9168C32.4857 18.3536 32.6408 18.7726 32.9457 19.0972C32.9847 19.1384 33.0252 19.1782 33.0688 19.2156L34.6218 20.563C35.4428 21.275 35.9262 22.252 35.9836 23.314C36.0403 24.3758 35.6638 25.3958 34.9232 26.1852C34.0921 27.0712 32.8839 27.554 31.6359 27.4946L29.5481 27.3914C29.5193 27.3898 29.4892 27.3894 29.4595 27.3894C28.5532 27.3894 27.8066 28.0726 27.7602 28.9446C27.757 29.0004 27.757 29.0552 27.7602 29.1094L27.8679 31.1176C27.9218 32.1828 27.542 33.2012 26.7991 33.989C26.0559 34.7766 25.0384 35.2388 23.9337 35.2906C22.7008 35.3472 21.4914 34.866 20.6635 33.9864L19.2602 32.4902C18.9384 32.1476 18.4773 31.9508 17.9959 31.9508C17.5743 31.9508 17.1698 32.1008 16.856 32.373C16.8123 32.411 16.7715 32.45 16.733 32.491L15.3318 33.9848C14.549 34.8192 13.4281 35.298 12.2577 35.298ZM6.53365 25.0446C6.60312 25.0446 6.67299 25.0462 6.74246 25.0496C7.84462 25.1032 8.86105 25.5668 9.60205 26.3554C10.3435 27.1442 10.7213 28.163 10.6652 29.2246L10.558 31.2328C10.5315 31.7278 10.7359 32.2012 11.1178 32.5328C11.4314 32.8052 11.836 32.9548 12.2573 32.9548C12.7395 32.9548 13.2002 32.7578 13.5224 32.414L14.924 30.92C15.0189 30.8184 15.119 30.7226 15.2237 30.6316C15.9846 29.9712 16.9698 29.6062 17.9959 29.6062C19.1659 29.6062 20.2861 30.0848 21.0698 30.9192L22.4716 32.414C22.7923 32.7548 23.252 32.9508 23.7322 32.9508L23.8151 32.9488C24.2697 32.9278 24.6877 32.7376 24.9936 32.4138C25.2991 32.0898 25.4551 31.6712 25.4332 31.2344L25.3255 29.2302C25.3182 29.0954 25.3182 28.9594 25.3255 28.823C25.4414 26.6372 27.3865 24.939 29.6721 25.05L31.7605 25.1532C32.2703 25.1786 32.7702 24.9794 33.1125 24.6148C33.4172 24.2898 33.5721 23.8708 33.5485 23.4344C33.5248 22.998 33.3262 22.5962 32.9882 22.3032L31.4347 20.9554C31.33 20.8644 31.2303 20.7688 31.1361 20.6684C30.3951 19.879 30.0177 18.8598 30.0742 17.7976C30.1308 16.7356 30.6137 15.7582 31.4351 15.0458L32.9886 13.6976C33.3734 13.3644 33.5777 12.8894 33.5504 12.3934C33.501 11.4949 32.723 10.8012 31.7601 10.8457L29.6699 10.9492C29.5263 10.9559 29.3917 10.9559 29.2548 10.9492C26.9713 10.8387 25.2081 8.96409 25.3227 6.77035L25.4304 4.76137C25.4555 4.27309 25.2525 3.80199 24.8746 3.47191C24.5607 3.19769 24.1547 3.04691 23.7311 3.04691C23.2444 3.04691 22.7962 3.23753 22.4696 3.58363L21.0708 5.07465C20.9759 5.17621 20.8758 5.27191 20.7712 5.36293C20.0103 6.02347 19.0251 6.38831 17.9989 6.38831C16.8289 6.38831 15.7088 5.90981 14.9251 5.07543L13.5248 3.58831C13.1819 3.22309 12.6908 3.02347 12.1744 3.04847C11.7202 3.07035 11.3022 3.26097 10.9971 3.58519C10.692 3.90941 10.5364 4.32817 10.5592 4.76527L10.6664 6.77113C10.6742 6.90667 10.6745 7.04573 10.6668 7.18519C10.5498 9.37309 8.61853 11.0778 6.31792 10.9586L4.15912 10.8539C3.68096 10.8539 3.2219 11.0492 2.90015 11.3891C2.59383 11.7129 2.43703 12.1312 2.45854 12.5684C2.48008 13.0054 2.67671 13.4078 3.01308 13.702L4.56212 15.0468C4.66571 15.1368 4.76566 15.2328 4.8603 15.3336C5.60129 16.123 5.97871 17.1422 5.92224 18.2044C5.86537 19.2664 5.38274 20.2438 4.56171 20.9562L3.00942 22.304C2.62755 22.6352 2.42362 23.1082 2.44879 23.6012C2.49592 24.5012 3.28283 25.1962 4.23467 25.1548L6.32037 25.0516C6.39065 25.0466 6.46215 25.0446 6.53365 25.0446Z" fill="url(#paint0_linear_2030_540)"/>
<path d="M17.9972 27.021C12.824 27.021 8.61523 22.9742 8.61523 18C8.61523 13.0258 12.8236 8.97888 17.9972 8.97888C23.1707 8.97888 27.3795 13.0258 27.3795 18C27.3795 22.9742 23.1707 27.021 17.9972 27.021ZM17.9972 11.3226C14.1678 11.3226 11.0527 14.318 11.0527 18C11.0527 21.682 14.1678 24.6774 17.9972 24.6774C21.8265 24.6774 24.942 21.6816 24.942 18C24.942 14.318 21.8265 11.3226 17.9972 11.3226Z" fill="url(#paint1_linear_2030_540)"/>
<path d="M17.9972 23.7946C14.6742 23.7946 11.9705 21.195 11.9705 17.9996C11.9705 14.8042 14.6742 12.205 17.9972 12.205C21.3204 12.205 24.024 14.8046 24.024 18C24.024 21.1954 21.3204 23.7946 17.9972 23.7946ZM17.9972 14.5488C16.0179 14.5488 14.4081 16.0968 14.4081 17.9996C14.4081 19.9024 16.0179 21.4508 17.9972 21.4508C19.9764 21.4508 21.5865 19.9028 21.5865 17.9996C21.5865 16.0964 19.9764 14.5488 17.9972 14.5488Z" fill="url(#paint2_linear_2030_540)"/>
<defs>
<linearGradient id="paint0_linear_2030_540" x1="8.49666" y1="2.17231" x2="26.4042" y2="34.4295" gradientUnits="userSpaceOnUse">
<stop stop-color="#DE3FFF"/>
<stop offset="1" stop-color="#483FFF"/>
</linearGradient>
<linearGradient id="paint1_linear_2030_540" x1="8.49661" y1="2.17224" x2="26.4041" y2="34.4295" gradientUnits="userSpaceOnUse">
<stop stop-color="#DE3FFF"/>
<stop offset="1" stop-color="#483FFF"/>
</linearGradient>
<linearGradient id="paint2_linear_2030_540" x1="8.49668" y1="2.17222" x2="26.4044" y2="34.4295" gradientUnits="userSpaceOnUse">
<stop stop-color="#DE3FFF"/>
<stop offset="1" stop-color="#483FFF"/>
</linearGradient>
</defs>
</svg>
