<svg width="13" height="4" viewBox="0 0 13 4" fill="none" xmlns="http://www.w3.org/2000/svg">
<path d="M1.38068 3.14773C1.00568 3.14773 0.683712 3.01515 0.414773 2.75C0.149621 2.48106 0.0170455 2.15909 0.0170455 1.78409C0.0170455 1.41288 0.149621 1.0947 0.414773 0.829545C0.683712 0.564394 1.00568 0.431818 1.38068 0.431818C1.74432 0.431818 2.0625 0.564394 2.33523 0.829545C2.60795 1.0947 2.74432 1.41288 2.74432 1.78409C2.74432 2.03409 2.67992 2.26326 2.55114 2.47159C2.42614 2.67614 2.26136 2.84091 2.05682 2.96591C1.85227 3.08712 1.62689 3.14773 1.38068 3.14773ZM6.14631 3.14773C5.77131 3.14773 5.44934 3.01515 5.1804 2.75C4.91525 2.48106 4.78267 2.15909 4.78267 1.78409C4.78267 1.41288 4.91525 1.0947 5.1804 0.829545C5.44934 0.564394 5.77131 0.431818 6.14631 0.431818C6.50994 0.431818 6.82813 0.564394 7.10085 0.829545C7.37358 1.0947 7.50994 1.41288 7.50994 1.78409C7.50994 2.03409 7.44555 2.26326 7.31676 2.47159C7.19176 2.67614 7.02699 2.84091 6.82244 2.96591C6.6179 3.08712 6.39252 3.14773 6.14631 3.14773ZM10.9119 3.14773C10.5369 3.14773 10.215 3.01515 9.94602 2.75C9.68087 2.48106 9.5483 2.15909 9.5483 1.78409C9.5483 1.41288 9.68087 1.0947 9.94602 0.829545C10.215 0.564394 10.5369 0.431818 10.9119 0.431818C11.2756 0.431818 11.5938 0.564394 11.8665 0.829545C12.1392 1.0947 12.2756 1.41288 12.2756 1.78409C12.2756 2.03409 12.2112 2.26326 12.0824 2.47159C11.9574 2.67614 11.7926 2.84091 11.5881 2.96591C11.3835 3.08712 11.1581 3.14773 10.9119 3.14773Z" fill="black"/>
</svg>
